<svg viewBox="0 0 751 894" xmlns="http://www.w3.org/2000/svg" fill-rule="evenodd" clip-rule="evenodd" stroke-linejoin="round" stroke-miterlimit="2"><path d="M471.323 335.792c-58.78 5.846-74.642 51.511-74.642 51.511v180.972s15.862-45.673 74.642-51.527c51.867-5.176 77.097-17.581 84.906-35.146V300.646c-7.81 17.574-33.039 29.979-84.906 35.146" fill-rule="nonzero"/><path d="M566.298 378.035v105.704l-.869 1.954c-10.086 22.69-39.672 35.742-93.109 41.075-21.518 2.143-39.142 10.27-52.382 24.154-10.017 10.505-13.727 20.608-13.744 20.656l-9.514 27.392v294.448S431.856 792.24 562.007 779.28c114.88-11.445 170.79-38.929 188.041-77.82V300.645c-17.035 38.43-71.77 65.684-183.75 77.389M442.314 176.573c-35.935 3.57-45.634 31.495-45.634 31.495v110.648s9.699-27.925 45.634-31.505c31.71-3.165 47.142-10.748 51.911-21.488V155.084c-4.77 10.75-20.2 18.332-51.911 21.489M420.853 11.391c-19.036 1.887-24.172 16.665-24.172 16.665v58.608s5.136-14.787 24.172-16.682c16.788-1.684 24.966-5.696 27.491-11.383v-58.6c-2.525 5.688-10.703 9.708-27.491 11.392M257.409 226.09c75.51 7.52 95.953 66.243 95.953 66.243V524.93s-20.443-58.712-95.953-66.225c-66.677-6.657-99.115-22.59-109.113-45.188v-232.59c9.998 22.59 42.436 38.531 109.113 45.162" fill-rule="nonzero"/><path d="M343.851 528.24c-.184-.526-19.118-52.719-87.444-59.516-33.72-3.366-59.496-9.056-78.802-17.391-19.35-8.356-32.31-19.709-38.519-33.742l-.861-1.948v-43.727C56.563 358.12 14.542 333.456-.002 300.646V701.46c17.251 38.892 73.162 66.374 188.036 77.82 130.156 12.962 165.327 114.138 165.327 114.138V555.556l-9.51-27.315zM305.388 72.996c37.755 3.756 47.974 33.118 47.974 33.118v116.307s-10.219-29.36-47.974-33.117c-33.338-3.333-49.557-11.295-54.557-22.59V50.417c5 11.294 21.219 19.264 54.557 22.58" fill-rule="nonzero"/></svg>
