<?xml version="1.0" encoding="UTF-8" standalone="no"?>
<!DOCTYPE svg PUBLIC "-//W3C//DTD SVG 1.1//EN" "http://www.w3.org/Graphics/SVG/1.1/DTD/svg11.dtd">
<svg width="100%" height="100%" viewBox="0 0 2483 2958" version="1.1" xmlns="http://www.w3.org/2000/svg" xmlns:xlink="http://www.w3.org/1999/xlink" xml:space="preserve" xmlns:serif="http://www.serif.com/" style="fill-rule:evenodd;clip-rule:evenodd;stroke-linejoin:round;stroke-miterlimit:2;">
    <g transform="matrix(4.16667,0,0,4.16667,1560.15,1764.74)">
        <path d="M0,-156.771C-46.697,-152.127 -59.298,-115.849 -59.298,-115.849L-59.298,27.921C-59.298,27.921 -46.697,-8.363 0,-13.014C41.205,-17.126 61.248,-26.981 67.452,-40.935L67.452,-184.692C61.248,-170.731 41.205,-160.876 0,-156.771" style="fill:rgb(51,122,144);fill-rule:nonzero;"/>
    </g>
    <g transform="matrix(4.16667,0,0,4.16667,1874.53,2701.18)">
        <path d="M0,-347.957L0,-263.982L-0.69,-262.43C-8.703,-244.404 -32.207,-234.035 -74.659,-229.799C-91.754,-228.096 -105.755,-221.64 -116.273,-210.61C-124.231,-202.264 -127.178,-194.238 -127.192,-194.2L-134.75,-172.439L-134.75,61.48C-134.75,61.48 -106.805,-18.898 -3.409,-29.195C87.855,-38.287 132.272,-60.121 145.977,-91.018L145.977,-409.437C132.444,-378.907 88.96,-357.256 0,-347.957" style="fill:rgb(9,81,121);fill-rule:nonzero;"/>
    </g>
    <g transform="matrix(4.16667,0,0,4.16667,1464.13,983.865)">
        <path d="M0,-95.852C-28.548,-93.015 -36.253,-70.831 -36.253,-70.831L-36.253,17.071C-36.253,17.071 -28.548,-5.113 0,-7.957C25.192,-10.472 37.451,-16.496 41.24,-25.028L41.24,-112.923C37.451,-104.383 25.192,-98.36 0,-95.852" style="fill:rgb(90,158,167);fill-rule:nonzero;"/>
    </g>
    <g transform="matrix(4.16667,0,0,4.16667,1393.09,249.163)">
        <path d="M0,-50.749C-15.123,-49.25 -19.203,-37.51 -19.203,-37.51L-19.203,9.05C-19.203,9.05 -15.123,-2.697 0,-4.203C13.337,-5.541 19.834,-8.728 21.84,-13.246L21.84,-59.799C19.834,-55.281 13.337,-52.087 0,-50.749" style="fill:rgb(130,190,189);fill-rule:nonzero;"/>
    </g>
    <g transform="matrix(4.16667,0,0,4.16667,852.063,1588.1)">
        <path d="M0,-201.531C59.988,-195.556 76.228,-148.905 76.228,-148.905L76.228,35.878C76.228,35.878 59.988,-10.765 0,-16.733C-52.97,-22.022 -78.74,-34.68 -86.683,-52.632L-86.683,-237.409C-78.74,-219.463 -52.97,-206.799 0,-201.531" style="fill:rgb(51,122,144);fill-rule:nonzero;"/>
    </g>
    <g transform="matrix(4.16667,0,0,4.16667,1138.2,2203.98)">
        <path d="M0,-109.301C-0.146,-109.719 -15.188,-151.183 -69.468,-156.583C-96.256,-159.257 -116.734,-163.777 -132.071,-170.399C-147.443,-177.037 -157.739,-186.056 -162.672,-197.205L-163.356,-198.752L-163.356,-233.49C-228.231,-244.45 -261.614,-264.044 -273.168,-290.109L-273.168,28.31C-259.463,59.207 -215.046,81.04 -123.786,90.133C-20.386,100.43 7.555,180.808 7.555,180.808L7.555,-87.601L0,-109.301Z" style="fill:rgb(9,81,121);fill-rule:nonzero;"/>
    </g>
    <g transform="matrix(4.16667,0,0,4.16667,1010.88,661.506)">
        <path d="M0,-100.77C29.994,-97.786 38.112,-74.46 38.112,-74.46L38.112,17.938C38.112,17.938 29.994,-5.387 0,-8.371C-26.485,-11.019 -39.37,-17.344 -43.342,-26.317L-43.342,-118.708C-39.37,-109.736 -26.485,-103.404 0,-100.77" style="fill:rgb(90,158,167);fill-rule:nonzero;"/>
    </g>
</svg>
