<svg width="275" height="50" fill="none" xmlns="http://www.w3.org/2000/svg"><path d="M30.385 18.788c-3.289.327-4.177 2.882-4.177 2.882v10.126s.888-2.556 4.177-2.883c2.902-.29 4.314-.984 4.75-1.967V16.821c-.436.984-1.848 1.678-4.75 1.967z" fill="#337A90"/><path d="M35.699 21.151v5.915l-.049.11c-.564 1.269-2.22 1.999-5.21 2.297-1.203.12-2.19.575-2.93 1.352-.56.588-.768 1.153-.77 1.155l-.531 1.533v16.475s1.968-5.66 9.25-6.386c6.428-.64 9.556-2.178 10.521-4.354V16.82c-.953 2.15-4.015 3.675-10.281 4.33z" fill="#095179"/><path d="M28.762 9.882c-2.01.2-2.553 1.762-2.553 1.762v6.19s.542-1.562 2.553-1.762c1.774-.177 2.637-.601 2.904-1.202V8.68c-.267.6-1.13 1.025-2.904 1.202z" fill="#5A9EA7"/><path d="M27.561.637c-1.065.106-1.352.933-1.352.933v3.28s.287-.828 1.352-.934c.94-.095 1.397-.319 1.538-.637V0c-.141.318-.599.543-1.538.637z" fill="#82BEBD"/><path d="M18.422 12.653c4.225.42 5.369 3.706 5.369 3.706v13.014s-1.144-3.285-5.37-3.705c-3.73-.372-5.545-1.264-6.104-2.528V10.126c.56 1.264 2.374 2.156 6.105 2.527z" fill="#337A90"/><path d="M23.256 29.556c-.01-.03-1.07-2.95-4.893-3.33-1.887-.189-3.329-.507-4.41-.973-1.082-.468-1.807-1.103-2.154-1.888l-.048-.11V20.81c-4.57-.772-6.92-2.152-7.735-3.988v22.427c.966 2.176 4.094 3.714 10.521 4.354 7.283.725 9.25 6.386 9.25 6.386V31.084l-.531-1.528z" fill="#095179"/><path d="M21.107 4.083c2.112.21 2.684 1.853 2.684 1.853v6.508s-.572-1.643-2.684-1.853c-1.866-.187-2.773-.632-3.053-1.264V2.82c.28.632 1.187 1.078 3.053 1.263z" fill="#5A9EA7"/><path d="M58.431 8.4h8.064c2.624 0 4.592.704 5.904 2.112 1.312 1.408 1.968 3.472 1.968 6.192v16.992c0 2.72-.656 4.784-1.968 6.192C71.087 41.296 69.12 42 66.495 42h-8.064V8.4zM66.4 37.2c.864 0 1.52-.256 1.968-.768.48-.512.72-1.344.72-2.496V16.464c0-1.152-.24-1.984-.72-2.496-.448-.512-1.104-.768-1.968-.768h-2.688v24H66.4zM77.691 8.4h14.4v4.8h-9.12v8.88h7.248v4.8h-7.248V37.2h9.12V42h-14.4V8.4zm15.806 0h5.328l3.456 26.064h.096L105.833 8.4h4.848L105.593 42h-7.008L93.497 8.4zm26.928 0h7.968c2.72 0 4.704.64 5.952 1.92 1.248 1.248 1.872 3.184 1.872 5.808v1.344c0 1.728-.288 3.136-.864 4.224-.544 1.088-1.392 1.872-2.544 2.352v.096c2.624.896 3.936 3.232 3.936 7.008v2.88c0 2.592-.688 4.576-2.064 5.952-1.344 1.344-3.328 2.016-5.952 2.016h-8.304V8.4zm7.344 13.68c1.056 0 1.84-.272 2.352-.816.544-.544.816-1.456.816-2.736v-1.872c0-1.216-.224-2.096-.672-2.64-.416-.544-1.088-.816-2.016-.816h-2.544v8.88h2.064zm.96 15.12c.928 0 1.616-.24 2.064-.72.448-.512.672-1.376.672-2.592V30.96c0-1.536-.272-2.592-.816-3.168-.512-.608-1.376-.912-2.592-.912h-2.352V37.2h3.024zm18.494 5.28c-2.592 0-4.576-.736-5.952-2.208-1.376-1.472-2.064-3.552-2.064-6.24V16.368c0-2.688.688-4.768 2.064-6.24 1.376-1.472 3.36-2.208 5.952-2.208s4.576.736 5.952 2.208c1.376 1.472 2.064 3.552 2.064 6.24v17.664c0 2.688-.688 4.768-2.064 6.24-1.376 1.472-3.36 2.208-5.952 2.208zm0-4.8c1.824 0 2.736-1.104 2.736-3.312V16.032c0-2.208-.912-3.312-2.736-3.312-1.824 0-2.736 1.104-2.736 3.312v18.336c0 2.208.912 3.312 2.736 3.312zm18.979 4.8c-2.592 0-4.576-.736-5.952-2.208-1.376-1.472-2.064-3.552-2.064-6.24V16.368c0-2.688.688-4.768 2.064-6.24 1.376-1.472 3.36-2.208 5.952-2.208s4.576.736 5.952 2.208c1.376 1.472 2.064 3.552 2.064 6.24v17.664c0 2.688-.688 4.768-2.064 6.24-1.376 1.472-3.36 2.208-5.952 2.208zm0-4.8c1.824 0 2.736-1.104 2.736-3.312V16.032c0-2.208-.912-3.312-2.736-3.312-1.824 0-2.736 1.104-2.736 3.312v18.336c0 2.208.912 3.312 2.736 3.312zM177.548 8.4h5.28v14.16l6.72-14.16h5.28l-6.288 12.336L194.924 42h-5.52l-4.464-14.976-2.112 4.272V42h-5.28V8.4zm34.523 34.08c-2.528 0-4.464-.72-5.808-2.16-1.312-1.44-1.968-3.472-1.968-6.096V16.176c0-2.624.656-4.656 1.968-6.096 1.344-1.44 3.28-2.16 5.808-2.16s4.448.72 5.76 2.16c1.344 1.44 2.016 3.472 2.016 6.096v3.552h-4.992V15.84c0-2.08-.88-3.12-2.64-3.12-1.76 0-2.64 1.04-2.64 3.12v18.768c0 2.048.88 3.072 2.64 3.072 1.76 0 2.64-1.024 2.64-3.072v-5.136h4.992v4.752c0 2.624-.672 4.656-2.016 6.096-1.312 1.44-3.232 2.16-5.76 2.16zM222.766 8.4h5.28v28.8h8.688V42h-13.968V8.4zm23.94 34.08c-2.56 0-4.512-.72-5.856-2.16-1.344-1.472-2.016-3.568-2.016-6.288V8.4h5.28v26.016c0 1.152.224 1.984.672 2.496.48.512 1.152.768 2.016.768.864 0 1.52-.256 1.968-.768.48-.512.72-1.344.72-2.496V8.4h5.088v25.632c0 2.72-.672 4.816-2.016 6.288-1.344 1.44-3.296 2.16-5.856 2.16zM258.098 8.4h7.968c2.72 0 4.704.64 5.952 1.92 1.248 1.248 1.872 3.184 1.872 5.808v1.344c0 1.728-.288 3.136-.864 4.224-.544 1.088-1.392 1.872-2.544 2.352v.096c2.624.896 3.936 3.232 3.936 7.008v2.88c0 2.592-.688 4.576-2.064 5.952-1.344 1.344-3.328 2.016-5.952 2.016h-8.304V8.4zm7.344 13.68c1.056 0 1.84-.272 2.352-.816.544-.544.816-1.456.816-2.736v-1.872c0-1.216-.224-2.096-.672-2.64-.416-.544-1.088-.816-2.016-.816h-2.544v8.88h2.064zm.96 15.12c.928 0 1.616-.24 2.064-.72.448-.512.672-1.376.672-2.592V30.96c0-1.536-.272-2.592-.816-3.168-.512-.608-1.376-.912-2.592-.912h-2.352V37.2h3.024z" fill="#0C5179"/></svg>