<?xml version="1.0" standalone="no"?>
<!DOCTYPE svg PUBLIC "-//W3C//DTD SVG 20010904//EN"
 "http://www.w3.org/TR/2001/REC-SVG-20010904/DTD/svg10.dtd">
<svg version="1.0" xmlns="http://www.w3.org/2000/svg"
 width="1050.000000pt" height="1050.000000pt" viewBox="0 0 1050.000000 1050.000000"
 preserveAspectRatio="xMidYMid meet">
<metadata>
Created by potrace 1.11, written by Peter Selinger 2001-2013
</metadata>
<g transform="translate(0.000000,1050.000000) scale(0.100000,-0.100000)"
fill="#000000" stroke="none">
<path d="M6088 10472 c-14 -18 -81 -61 -108 -68 -88 -22 -144 -33 -194 -39
-92 -10 -164 -43 -221 -100 -65 -66 -64 -59 -65 -425 -1 -183 1 -335 4 -338 3
-2 9 4 12 14 16 45 159 155 178 137 3 -4 6 -2 6 4 0 5 6 10 13 10 6 0 28 3 47
6 19 3 53 8 75 12 111 15 189 43 233 81 l37 32 1 346 c0 190 0 346 -2 346 -2
0 -9 -8 -16 -18z"/>
<path d="M3789 9890 c0 -8 -2 -312 -2 -675 -2 -743 -6 -702 75 -768 41 -33
144 -88 176 -93 8 -1 21 -6 30 -10 28 -12 161 -42 217 -50 17 -2 46 -6 65 -8
19 -3 60 -8 90 -12 232 -26 430 -153 528 -339 l21 -40 1 685 0 685 -37 63
c-20 34 -66 90 -102 124 -73 69 -81 75 -161 114 -77 38 -93 45 -115 49 -11 2
-20 4 -20 5 0 2 -37 10 -80 15 -39 6 -54 8 -146 19 -24 3 -55 8 -69 11 -14 2
-50 10 -80 15 -30 6 -66 15 -80 21 -14 5 -36 11 -49 14 -36 7 -162 72 -193 99
-15 14 -37 39 -48 58 -11 18 -20 26 -21 18z"/>
<path d="M6628 8648 c-23 -34 -80 -88 -94 -88 -7 0 -14 -3 -16 -7 -7 -18 -163
-77 -232 -89 -17 -2 -38 -7 -46 -9 -8 -2 -33 -6 -55 -9 -22 -4 -51 -8 -65 -11
-14 -2 -50 -7 -80 -10 -203 -19 -380 -116 -478 -260 -15 -22 -31 -43 -37 -47
-5 -4 -6 -8 -2 -8 5 0 1 -10 -8 -22 -13 -20 -15 -98 -15 -670 0 -357 2 -648 4
-648 2 0 14 21 27 47 23 47 156 193 177 193 6 0 17 6 24 13 40 40 192 91 308
103 36 3 71 11 78 16 8 7 12 7 12 0 0 -6 13 -7 38 -1 20 4 51 10 67 13 76 14
89 17 99 24 6 3 16 7 21 7 14 0 86 26 110 38 11 6 26 12 33 13 22 4 120 87
133 114 10 19 13 168 14 673 1 356 0 647 -1 647 -1 0 -8 -10 -16 -22z"/>
<path d="M2582 6995 c1 -1317 1 -1367 19 -1389 11 -13 19 -28 19 -33 0 -20
120 -133 185 -175 93 -60 249 -132 330 -152 6 -1 26 -6 45 -10 19 -5 40 -12
45 -16 6 -4 17 -7 25 -8 8 0 58 -10 110 -22 52 -12 104 -23 115 -24 11 -2 34
-6 50 -9 17 -4 46 -9 65 -11 19 -3 53 -8 75 -11 22 -4 58 -8 80 -10 22 -2 40
-4 40 -5 0 -1 20 -3 45 -5 172 -13 409 -75 540 -141 26 -13 53 -24 58 -24 6 0
12 -4 14 -8 2 -4 23 -20 49 -34 121 -70 261 -197 350 -318 27 -36 52 -70 56
-75 9 -12 50 -85 75 -135 16 -34 17 22 18 1328 0 1252 -1 1367 -17 1400 -79
175 -250 375 -419 492 -87 61 -221 128 -324 165 -76 27 -92 31 -145 40 -16 3
-43 10 -60 15 -35 10 -119 22 -253 35 -29 2 -99 12 -155 20 -96 14 -123 19
-172 29 -135 28 -185 40 -270 66 -55 17 -107 32 -116 34 -9 3 -27 10 -40 17
-45 23 -59 29 -68 29 -6 0 -33 13 -61 30 -27 16 -50 27 -50 24 0 -2 -6 0 -12
6 -7 5 -40 31 -72 57 -77 61 -112 98 -143 151 -14 23 -26 42 -28 42 -1 0 -3
-614 -3 -1365z"/>
<path d="M841 4611 l-1 -2354 36 -66 c20 -36 39 -68 43 -71 4 -3 18 -20 31
-39 43 -62 155 -165 244 -223 22 -15 47 -33 54 -39 48 -41 467 -229 467 -210
0 1 13 -4 29 -13 16 -8 33 -13 38 -10 4 3 8 1 8 -4 0 -5 6 -9 13 -9 6 0 45
-10 86 -22 41 -13 81 -24 90 -26 9 -2 57 -13 106 -25 50 -13 99 -24 110 -26
11 -1 31 -6 45 -9 14 -3 39 -8 55 -11 17 -2 50 -9 75 -14 42 -9 168 -30 270
-46 25 -4 57 -7 73 -7 15 0 27 -3 27 -6 0 -3 12 -6 28 -6 26 -1 131 -11 202
-21 19 -3 53 -6 75 -9 22 -2 60 -7 85 -10 25 -3 61 -8 81 -10 19 -2 80 -13
135 -25 54 -12 110 -23 123 -26 14 -3 29 -7 33 -10 5 -3 24 -8 41 -11 18 -3
38 -10 45 -15 6 -6 12 -7 12 -3 0 4 7 2 15 -5 8 -7 15 -10 15 -7 0 3 35 -8 78
-25 42 -16 91 -34 107 -41 58 -21 332 -163 345 -178 3 -3 34 -25 70 -49 36
-24 70 -49 77 -54 6 -6 26 -22 44 -36 137 -103 354 -333 439 -464 68 -106 126
-206 159 -277 l40 -84 1 1981 0 1980 -55 160 c-31 87 -68 186 -84 219 -57 121
-192 284 -311 375 -25 19 -47 37 -50 40 -5 7 -156 92 -175 99 -5 2 -33 15 -62
27 -28 13 -56 24 -62 24 -5 0 -22 5 -38 12 -15 6 -32 12 -38 13 -138 33 -262
55 -325 57 -13 0 -106 11 -200 24 -39 5 -131 21 -170 29 -14 3 -45 10 -70 15
-171 34 -387 104 -477 155 -25 14 -52 25 -59 25 -8 0 -14 3 -14 8 0 4 -13 13
-28 20 -16 6 -38 21 -50 32 -12 11 -25 20 -30 20 -5 0 -17 10 -28 23 -11 12
-31 31 -44 42 -40 32 -101 111 -130 169 l-26 53 0 256 1 256 -30 6 c-16 4 -43
9 -60 12 -16 2 -61 11 -100 20 -94 20 -116 24 -140 27 -11 2 -27 6 -35 9 -8 3
-53 15 -100 27 -109 27 -98 24 -150 40 -57 17 -52 16 -70 22 -8 3 -51 18 -95
33 -44 14 -93 32 -110 39 -111 48 -203 92 -219 105 -10 9 -21 15 -25 15 -6 -2
-92 45 -101 56 -3 3 -25 19 -50 35 -25 16 -49 36 -53 42 -4 7 -12 13 -17 13
-9 0 -108 95 -150 145 -27 32 -103 150 -113 175 -3 8 -6 -1044 -6 -2339z"/>
<path d="M7356 6933 c-73 -135 -314 -264 -591 -319 -11 -2 -42 -8 -70 -14 -74
-14 -104 -19 -163 -26 -29 -3 -63 -7 -75 -10 -12 -2 -44 -6 -72 -9 -144 -16
-216 -32 -330 -77 -233 -91 -407 -244 -524 -460 l-31 -58 0 -1062 c0 -831 3
-1059 12 -1043 7 11 13 22 13 25 1 7 58 104 65 110 3 3 18 23 34 45 43 59 136
147 208 198 70 50 197 117 221 117 8 0 17 4 19 8 3 8 91 34 158 48 14 3 32 7
40 9 8 3 42 7 75 10 33 4 71 8 85 10 14 3 50 7 80 11 30 3 66 8 80 10 14 3 39
7 55 9 17 3 44 8 60 11 17 4 40 9 52 11 59 10 71 12 111 27 23 8 46 15 50 16
4 0 30 8 57 17 28 10 52 17 55 18 13 1 165 80 168 87 2 4 8 8 13 8 16 0 99 81
132 130 l31 45 1 1063 c0 584 -1 1062 -2 1062 -1 0 -9 -12 -17 -27z"/>
<path d="M9633 6935 c-12 -31 -40 -79 -58 -102 -5 -7 -19 -25 -30 -39 -22 -29
-140 -150 -171 -174 -78 -62 -367 -230 -396 -230 -3 0 -23 -8 -44 -17 -22 -9
-41 -17 -44 -18 -3 -1 -18 -7 -34 -14 -36 -15 -259 -86 -302 -96 -10 -3 -63
-16 -117 -29 -54 -14 -112 -28 -130 -31 -60 -12 -72 -14 -97 -19 -53 -12 -136
-28 -170 -33 -48 -6 -75 -11 -75 -13 0 -1 -13 -3 -30 -5 -36 -4 -93 -12 -149
-21 -22 -3 -52 -8 -66 -9 -14 -2 -52 -6 -85 -10 -52 -7 -83 -10 -131 -14 -7
-1 -11 -187 -11 -630 0 -628 0 -628 -21 -659 -12 -16 -22 -35 -22 -41 0 -6 -5
-11 -11 -11 -5 0 -7 -4 -4 -10 3 -5 2 -10 -3 -10 -5 0 -21 -17 -35 -37 -15
-21 -27 -34 -27 -29 0 5 -12 -4 -27 -21 -32 -34 -112 -86 -193 -124 -86 -41
-289 -107 -312 -101 -5 1 -8 -1 -8 -6 0 -4 -13 -8 -28 -9 -28 -2 -54 -6 -102
-18 -14 -3 -44 -8 -67 -10 -24 -2 -46 -6 -50 -8 -5 -3 -35 -8 -68 -11 -196
-21 -230 -26 -310 -48 -22 -6 -44 -11 -50 -13 -40 -9 -171 -72 -232 -111 -48
-30 -178 -153 -219 -205 -30 -40 -94 -159 -100 -187 -1 -8 -6 -21 -10 -30 -4
-9 -8 -21 -10 -27 -1 -5 -21 -62 -43 -125 l-41 -115 0 -1725 0 -1725 58 115
c53 106 166 288 209 335 10 11 34 41 54 65 83 103 263 275 363 345 15 11 33
25 40 30 28 24 76 55 86 55 5 0 10 4 10 9 0 5 10 13 23 17 12 4 24 10 27 14 3
4 61 37 130 73 194 100 469 198 625 222 11 2 40 8 65 14 58 13 92 18 160 26
30 3 69 7 85 9 17 3 62 7 100 10 39 4 77 9 87 12 9 2 42 7 75 9 32 2 58 5 58
5 0 3 42 9 90 14 28 3 61 8 75 11 14 3 41 8 60 10 19 3 69 12 110 20 41 8 95
17 119 20 24 2 49 9 56 15 6 5 14 7 18 4 3 -3 21 -1 39 5 18 5 44 12 58 15 14
2 45 9 70 16 25 7 52 13 61 15 9 2 49 13 89 25 40 12 80 23 89 26 42 9 207 70
212 77 3 5 8 8 10 8 18 -6 293 128 353 172 173 125 267 216 319 305 12 21 24
39 27 42 3 3 14 21 23 42 16 34 17 192 15 2390 -2 1844 -6 2347 -15 2323z"/>
</g>
</svg>
